<svg xmlns="http://www.w3.org/2000/svg" viewBox="0 0 348.046 274.594"><title>Arizona Diamondbacks hat dark logo</title><path fill="#3ec1cc" d="m103.571 210.346-87.064 54.842-.001.001 87.065-54.843z"/><path fill="#aa182c" d="m119.645 261.099-13.859-28.509.376-.618 77.945-128.198 25.84.006 29.433 131.661-19.043 25.757h86.36L251.488 13.373h-61.069l14.658 22.51-39.14 17.607 16.859 29.196-51.431 24.605 17.21 31.902-53.22 33.537 16.392 40.221-78.049 48.397.4-.249h85.547zM189.554 12.045l.859 1.319-.849-1.319h-.01z"/><path d="M315.374 267.898 257.245 6.525l-71.321-.039 3.631 5.559.857 1.319.006.009h61.071l55.208 247.825h-86.36l19.044-25.757-29.434-131.661-25.842-.007-77.944 128.199-.376.619 13.861 28.508H34.098l-.401.249-3.788 2.348-.094.059-6.677 4.135h108.32l-17.144-35.339 73.55-122.657h16.017l27.772 123.888-24.949 34.143 108.67-.027z"/><path d="m156.429 50.309 39.5-17.559L179.32 8.34l-1.263-1.855L12.216 267.891l4.291-2.703 87.064-54.842-16.704-39.731 53.089-33.276-18.354-32.911 51.45-24.834-16.623-29.285z"/><path fill="#aa182c" d="M202.662 164.563h-33.2s2.498 9.843 3.066 12.034c-1.52 2.624-20.284 35.077-20.284 35.077s26.744-22.106 30.54-25.234c2.622 3.171 21.516 26.085 21.516 26.085s-9.346-31.237-10.242-34.211c1.385-2.221 8.603-13.751 8.603-13.751"/><path fill="#3ec1cc" d="m223.267 232.265-30.773 42.328h131.455L262.793 1.038 262.56 0l-89.054.063L0 274.586h142.753l-20.034-42.108 39.876-66.928 2.692 10.592-33.396 57.64 50.087-37.175 33.584 37.175-13.944-53.877 7.651-12.239 13.997 64.599Zm-40.482-45.825c-3.796 3.128-30.54 25.235-30.54 25.235s18.764-32.453 20.284-35.078c-.569-2.191-3.065-12.034-3.065-12.034h33.198s-7.217 11.53-8.601 13.751c.894 2.974 10.24 34.213 10.24 34.213s-18.894-22.916-21.516-26.086m-15.86-28.16 25.111-42.145h6.069l9.131 42.145h-40.311Zm-154.71 109.61L178.058 6.485l1.262 1.856 16.61 24.408-39.501 17.56 16.623 29.285-51.45 24.833 18.355 32.912-53.089 33.276 16.704 39.731-87.065 54.843v-.003l-4.291 2.704Zm119.243 0H23.138l88.609-54.939-16.392-40.221 53.22-33.537-17.209-31.902 51.43-24.607-16.859-29.194 39.14-17.608-14.658-22.51-.005-.008-.859-1.319-3.631-5.56 71.323.04L315.375 267.9l-108.669.027 24.949-34.143-27.773-123.888h-16.017l-73.549 122.656 17.144 35.34Z"/><path d="m345.219 266.533-1.951 5.254h-.044l-1.866-5.254h-2.863v8.059h1.648v-6.414h.037l2.265 6.414h1.587l2.333-6.414h.035v6.414h1.646v-8.059h-2.827zM330.511 267.965h2.437v6.628h1.649v-6.628h2.427v-1.431h-6.513v1.431z"/></svg>
